<?xml version="1.0" standalone="no"?>
<!DOCTYPE svg PUBLIC "-//W3C//DTD SVG 20010904//EN"
 "http://www.w3.org/TR/2001/REC-SVG-20010904/DTD/svg10.dtd">
<svg version="1.0" xmlns="http://www.w3.org/2000/svg"
 width="700.000000pt" height="700.000000pt" viewBox="0 0 700.000000 700.000000"
 preserveAspectRatio="xMidYMid meet">
<metadata>
Created by potrace 1.14, written by Peter Selinger 2001-2017
</metadata>
<g transform="translate(0.000000,700.000000) scale(0.100000,-0.100000)"
fill="#000000" stroke="none">
<path d="M867 6985 c-223 -45 -400 -138 -555 -294 -161 -160 -258 -354 -301
-601 -13 -72 -13 -5094 -1 -5170 5 -30 12 -69 14 -86 17 -106 105 -300 187
-411 37 -50 151 -168 191 -198 69 -52 125 -87 188 -117 91 -44 127 -57 275
-95 17 -4 1193 -9 2615 -10 2531 -2 2587 -1 2678 18 332 70 611 295 748 605
37 85 52 130 74 235 19 92 19 154 19 2619 1 2151 -1 2539 -14 2620 -64 426
-365 758 -790 873 l-80 22 -2590 1 c-2150 2 -2602 0 -2658 -11z"/>
</g>
</svg>
