<?xml version="1.0" standalone="no"?>
<!DOCTYPE svg PUBLIC "-//W3C//DTD SVG 20010904//EN"
 "http://www.w3.org/TR/2001/REC-SVG-20010904/DTD/svg10.dtd">
<svg version="1.0" xmlns="http://www.w3.org/2000/svg"
 width="1000.000000pt" height="1000.000000pt" viewBox="0 0 1000.000000 1000.000000"
 preserveAspectRatio="xMidYMid meet">
<metadata>
Created by potrace 1.14, written by Peter Selinger 2001-2017
</metadata>
<g transform="translate(0.000000,1000.000000) scale(0.100000,-0.100000)"
fill="#000000" stroke="none">
<path d="M5815 8939 c-926 -51 -1468 -234 -1958 -664 -158 -139 -304 -339
-682 -940 -561 -890 -786 -1183 -1316 -1715 -267 -268 -392 -408 -755 -841
-355 -425 -492 -615 -583 -810 -22 -47 -46 -110 -52 -140 -16 -75 -6 -200 24
-289 l25 -74 -100 -211 c-287 -602 -336 -713 -384 -887 -22 -78 -27 -121 -31
-267 -8 -240 10 -334 83 -447 46 -69 126 -126 247 -173 94 -36 757 -230 1077
-315 287 -76 515 -116 655 -116 233 0 518 104 1925 700 1517 643 2133 879
3140 1206 406 131 671 283 1475 844 202 141 349 231 436 268 80 33 140 34 269
2 117 -28 224 -30 304 -6 166 49 281 138 343 264 l38 76 0 130 -1 131 -56 140
c-108 270 -185 536 -328 1135 -183 766 -282 1085 -432 1385 -146 291 -394 577
-730 842 -419 331 -971 613 -1448 741 l-135 36 -450 2 c-247 1 -517 -2 -600
-7z m1058 -210 c215 -43 504 -154 802 -308 615 -316 1107 -756 1319 -1179 145
-288 242 -605 435 -1412 132 -549 220 -852 330 -1129 80 -200 47 -324 -110
-406 -96 -50 -174 -57 -304 -25 -187 45 -272 37 -432 -39 -114 -55 -230 -129
-582 -375 -463 -323 -630 -427 -893 -556 -179 -88 -251 -115 -723 -269 -750
-245 -1368 -488 -2900 -1136 -1034 -437 -1347 -560 -1599 -625 -199 -51 -401
-13 -1303 245 -597 171 -632 186 -681 294 -24 51 -27 69 -30 220 l-4 164 83
-7 c129 -10 242 -39 519 -132 195 -65 262 -84 286 -79 98 18 337 270 483 508
65 106 126 235 156 327 25 75 28 99 27 210 -2 343 -105 690 -241 813 -109 98
-191 98 -481 1 -91 -31 -193 -64 -228 -74 l-63 -19 189 197 c268 279 392 429
376 454 -26 42 -321 -160 -443 -304 -18 -20 -64 -107 -104 -194 -75 -164 -106
-204 -93 -123 14 91 127 288 284 497 82 110 469 575 647 777 77 88 268 291
425 450 288 293 389 404 562 621 211 263 453 616 778 1134 385 612 496 761
694 927 284 239 620 392 1046 477 332 67 681 92 1298 94 342 2 383 0 475 -19z"/>
<path d="M4965 8539 c-334 -191 -641 -468 -949 -854 -116 -145 -236 -307 -236
-318 0 -17 60 -4 105 22 66 38 157 135 291 312 60 79 143 178 185 219 206 204
292 281 378 340 180 124 296 215 319 250 23 34 26 70 7 77 -6 2 -51 -20 -100
-48z"/>
<path d="M3631 7172 c-68 -70 -112 -145 -94 -163 10 -10 22 -6 54 17 46 31
139 156 139 186 0 36 -41 19 -99 -40z"/>
<path d="M5548 7149 c-274 -21 -557 -116 -770 -258 -98 -66 -250 -226 -333
-350 -205 -308 -275 -661 -186 -933 37 -112 132 -303 214 -431 142 -219 181
-346 232 -757 42 -342 83 -506 162 -650 145 -263 342 -416 723 -558 128 -48
143 -51 283 -62 303 -24 668 26 1005 136 229 75 545 255 759 430 230 190 431
462 492 669 86 290 77 838 -19 1185 -66 239 -295 582 -546 820 -200 190 -328
276 -629 425 -428 211 -753 309 -1120 335 -77 5 -144 9 -150 9 -5 -1 -58 -6
-117 -10z"/>
<path d="M3353 6768 c-11 -13 -29 -36 -39 -52 -18 -28 -18 -29 5 -47 30 -24
33 -24 60 5 15 16 25 42 28 70 5 41 3 46 -14 46 -11 0 -29 -10 -40 -22z"/>
<path d="M3074 6315 c-9 -14 -17 -42 -18 -63 -1 -31 2 -37 22 -40 13 -2 30 2
38 8 25 22 12 120 -16 120 -5 0 -17 -11 -26 -25z"/>
<path d="M2815 5911 c-17 -10 -71 -67 -121 -127 -271 -325 -581 -658 -861
-924 -78 -74 -136 -136 -129 -138 17 -4 139 42 185 70 93 56 201 148 376 318
105 102 217 208 250 235 77 65 93 83 164 185 78 113 143 231 171 308 20 55 21
65 9 77 -12 13 -18 12 -44 -4z"/>
</g>
</svg>
